<?xml version="1.0" standalone="no"?><!DOCTYPE svg PUBLIC "-//W3C//DTD SVG 1.1//EN" "http://www.w3.org/Graphics/SVG/1.1/DTD/svg11.dtd"><svg t="1552309330238" class="icon" style="" viewBox="0 0 1024 1024" version="1.1" xmlns="http://www.w3.org/2000/svg" p-id="3028" xmlns:xlink="http://www.w3.org/1999/xlink" width="300" height="300"><defs><style type="text/css"></style></defs><path d="M837.995 98.005h-649.99c-49.706 0-90 40.294-90 90v649.991c0 49.706 40.294 90 90 90h649.991c49.706 0 90-40.294 90-90V188.005c-0.001-49.706-40.295-90-90.001-90z m34 739.99c0 18.748-15.252 34-34 34h-649.99c-18.748 0-34-15.252-34-34v-649.99c0-18.748 15.252-34 34-34h649.991c18.748 0 34 15.252 34 34v649.99z" p-id="3029"></path><path d="M648.392 378.508l-197.99 197.99-68.163-68.163a28.01 28.01 0 0 0-4.631-6.121c-10.935-10.935-28.663-10.935-39.598 0-10.935 10.935-10.935 28.663 0 39.598l-0.745 0.745 113.137 113.137L490 616.095l197.99-197.99c10.935-10.935 10.935-28.663 0-39.598s-28.663-10.934-39.598 0.001z" p-id="3030"></path></svg>