<svg t="1552307457581" class="icon" style="" viewBox="0 0 1024 1024" version="1.1" xmlns="http://www.w3.org/2000/svg" p-id="24007" xmlns:xlink="http://www.w3.org/1999/xlink" width="300" height="300"><defs><style type="text/css"></style></defs><path d="M409.6 136.533333v273.066667H136.533333V136.533333h273.066667m34.133333-68.266666H102.4c-20.48 0-34.133333 13.653333-34.133333 34.133333v341.333333c0 20.48 13.653333 34.133333 34.133333 34.133334h341.333333c20.48 0 34.133333-13.653333 34.133334-34.133334V102.4c0-20.48-13.653333-34.133333-34.133334-34.133333zM887.466667 136.533333v273.066667h-273.066667V136.533333h273.066667m34.133333-68.266666H580.266667c-20.48 0-34.133333 13.653333-34.133334 34.133333v341.333333c0 20.48 13.653333 34.133333 34.133334 34.133334h341.333333c20.48 0 34.133333-13.653333 34.133333-34.133334V102.4c0-20.48-13.653333-34.133333-34.133333-34.133333zM887.466667 614.4v273.066667h-273.066667v-273.066667h273.066667m34.133333-68.266667H580.266667c-20.48 0-34.133333 13.653333-34.133334 34.133334v341.333333c0 20.48 13.653333 34.133333 34.133334 34.133333h341.333333c20.48 0 34.133333-13.653333 34.133333-34.133333V580.266667c0-20.48-13.653333-34.133333-34.133333-34.133334zM409.6 614.4v273.066667H136.533333v-273.066667h273.066667m34.133333-68.266667H102.4c-20.48 0-34.133333 13.653333-34.133333 34.133334v341.333333c0 20.48 13.653333 34.133333 34.133333 34.133333h341.333333c20.48 0 34.133333-13.653333 34.133334-34.133333V580.266667c0-20.48-13.653333-34.133333-34.133334-34.133334z" p-id="24008"></path></svg>