<svg t="1552288079910" class="icon" style="" viewBox="0 0 1024 1024" version="1.1" xmlns="http://www.w3.org/2000/svg" p-id="870" xmlns:xlink="http://www.w3.org/1999/xlink" width="200" height="200"><defs><style type="text/css"></style></defs><path d="M682.666667 955.733333H170.666667c-66.030933 0-102.4-36.369067-102.4-102.4V341.333333v-0.0512a16.861867 16.861867 0 0 1 5.000533-12.014933l256-256A17.220267 17.220267 0 0 1 341.282133 68.266667H682.666667c66.030933 0 102.4 36.369067 102.4 102.4v256a17.066667 17.066667 0 1 1-34.133334 0V170.666667c0-47.223467-21.0432-68.266667-68.266666-68.266667H358.4v238.933333a17.066667 17.066667 0 0 1-17.066667 17.066667H102.4v494.933333c0 47.223467 21.0432 68.266667 68.266667 68.266667h512a17.066667 17.066667 0 1 1 0 34.133333zM126.532267 324.266667H324.266667V126.532267L126.532267 324.266667z" p-id="871" fill="#007efc"></path><path d="M768 964.266667a34.013867 34.013867 0 0 1-23.6544-9.506134l-0.017067-0.017066-0.512-0.512-170.615466-170.615467a34.133333 34.133333 0 1 1 48.264533-48.264533L733.866667 847.735467V512a34.133333 34.133333 0 0 1 68.266666 0v335.735467l112.401067-112.401067a34.133333 34.133333 0 1 1 48.264533 48.264533l-170.615466 170.615467-0.512 0.512-0.017067 0.017067A33.792 33.792 0 0 1 768 964.266667z" p-id="872" fill="#007efc"></path></svg>