<svg t="1552306668671" class="icon" style="" viewBox="0 0 1024 1024" version="1.1" xmlns="http://www.w3.org/2000/svg" p-id="16372" xmlns:xlink="http://www.w3.org/1999/xlink" width="300" height="300"><defs><style type="text/css"></style></defs><path d="M926.959477 294.471243h-56.694464c-2.299775 0-4.29958 0.699932-6.399375 1.299873v-239.976565c0-26.597403-21.597891-48.295284-48.295284-48.295283H235.127038c-26.597403 0-48.295284 21.597891-48.295283 48.295283v238.676692h-63.093839c-26.597403 0-48.295284 21.597891-48.295283 48.295284v632.938189c0 26.597403 21.597891 48.295284 48.295283 48.295284H926.959477c26.597403 0 48.295284-21.597891 48.295283-48.295284v-632.938189c-0.09999-26.597403-21.697881-48.295284-48.295283-48.295284zM124.037887 580.543306l186.081828 155.684797-110.189239 110.089249c-9.499072 9.499072-9.499072 24.797578 0 34.296651 9.399082 9.399082 24.797578 9.499072 34.29665 0L510.000195 604.840934c8.099209-7.999219 22.697783-8.099209 30.796993 0l275.673079 275.773069c4.599551 4.599551 10.698955 7.099307 17.09833 7.099306 6.499365 0 12.59877-2.499756 17.19832-7.099306 9.399082-9.399082 9.399082-24.797578 0-34.296651L740.677668 736.228103l186.081828-155.684797v365.864271c0 15.998438-12.998731 28.997168-28.997168 28.997169H153.035055c-15.998438 0-28.997168-12.998731-28.997168-28.997169V580.543306z m691.332487 29.897081l-109.189337 91.291085-146.685675-146.685676c-18.798164-18.798164-49.495166-18.798164-68.193341 0L344.516356 701.731472l-109.189337-91.291085V325.668196c0.699932-2.199785 1.399863-4.39957 1.399863-6.899326 0-2.399766-0.699932-4.699541-1.399863-6.899326V84.9917c0-15.998438 12.998731-28.997168 28.997168-28.997168h522.149009c15.998438 0 28.997168 12.998731 28.997168 28.997168v525.448687z m-628.538619-40.596036l-55.494581-46.395469c-2.199785-1.899814-4.799531-2.999707-7.399277-3.999609V371.963675c0-15.998438 12.998731-28.997168 28.997168-28.997168h33.89669v226.877844zM870.265013 342.966507h27.497315c15.998438 0 28.997168 12.998731 28.997168 28.997168v147.585588c-2.599746 0.999902-5.199492 2.199785-7.399277 3.999609L863.965628 569.944341V341.666634c1.999805 0.599941 4.0996 1.299873 6.299385 1.299873z" fill="" p-id="16373"></path><path d="M308.619861 252.975295h78.492335c26.597403 0 48.295284-21.597891 48.295284-48.295283v-78.492335c0-26.597403-21.597891-48.295284-48.295284-48.295284h-78.492335c-26.597403 0-48.295284 21.597891-48.295283 48.295284v78.492335c0.09999 26.697393 21.697881 48.295284 48.295283 48.295283z m-9.499072-67.693389v-39.496143c0-15.998438 12.998731-28.997168 28.997168-28.997168h39.496143c15.998438 0 28.997168 12.998731 28.997168 28.997168v39.496143c0 15.998438-12.998731 28.997168-28.997168 28.997168h-39.496143c-15.998438 0-28.997168-12.998731-28.997168-28.997168zM278.622791 323.568402c0 13.398692 10.898936 24.197637 24.197637 24.197636h445.056537c13.398692 0 24.197637-10.898936 24.197637-24.197636 0-13.398692-10.898936-24.197637-24.197637-24.197637H302.820428c-13.298701 0-24.197637 10.898936-24.197637 24.197637zM762.475539 379.562933H288.321844c-13.398692 0-24.197637 10.898936-24.197637 24.197637 0 13.398692 10.898936 24.197637 24.197637 24.197637h474.253686c13.398692 0 24.197637-10.898936 24.197637-24.197637 0-13.298701-10.898936-24.197637-24.297628-24.197637z" fill="" p-id="16374"></path></svg>