<svg t="1552288104444" class="icon" style="" viewBox="0 0 1024 1024" version="1.1" xmlns="http://www.w3.org/2000/svg" p-id="1074" xmlns:xlink="http://www.w3.org/1999/xlink" width="200" height="200"><defs><style type="text/css"></style></defs><path d="M682.666667 955.733333H170.666667c-66.030933 0-102.4-36.369067-102.4-102.4V341.333333v-0.0512a16.861867 16.861867 0 0 1 5.000533-12.014933l256-256A17.220267 17.220267 0 0 1 341.282133 68.266667H682.666667c66.030933 0 102.4 36.369067 102.4 102.4v256a17.066667 17.066667 0 1 1-34.133334 0V170.666667c0-47.223467-21.0432-68.266667-68.266666-68.266667H358.4v238.933333a17.066667 17.066667 0 0 1-17.066667 17.066667H102.4v494.933333c0 47.223467 21.0432 68.266667 68.266667 68.266667h512a17.066667 17.066667 0 1 1 0 34.133333zM126.532267 324.266667H324.266667V126.532267L126.532267 324.266667z" p-id="1075" fill="#007efc"></path><path d="M768 964.266667a34.133333 34.133333 0 0 1-34.133333-34.133334V594.397867l-112.401067 112.401066a34.133333 34.133333 0 1 1-48.264533-48.264533l170.666666-170.666667 0.034134-0.034133a34.013867 34.013867 0 0 1 28.535466-9.6768 33.9968 33.9968 0 0 1 19.882667 9.898667l170.461867 170.478933a34.133333 34.133333 0 1 1-48.264534 48.264533L802.133333 594.397867V930.133333a34.133333 34.133333 0 0 1-34.133333 34.133334z" p-id="1076" fill="#007efc"></path></svg>