<svg t="1552305442724" class="icon" style="" viewBox="0 0 1024 1024" version="1.1" xmlns="http://www.w3.org/2000/svg" p-id="5275" xmlns:xlink="http://www.w3.org/1999/xlink" width="300" height="300"><defs><style type="text/css"></style></defs><path d="M895.8 762.7v11.1c0.1-1.8 0.2-3.7 0.2-5.6 0-1.8 0-3.7-0.2-5.5z" p-id="5276"></path><path d="M853.6 204c-7.8-0.6-15.4 2.3-20.9 7.8-5.5 5.5-8.4 13.1-7.8 20.9v574.4c-2 30.7-26.3 55.2-56.9 57.4H267.1c-34.3 0-74.1-28.7-74.1-57.4v-64.3c0-28.7 34.3-46.3 68.5-46.3h478.2c7.8 0.6 15.4-2.3 20.9-7.8 5.5-5.5 8.4-13.1 7.8-20.9V198.5c0.6-29.5-11.6-57.8-33.4-77.7-21.8-19.9-51.2-29.3-80.5-26H267.1c-63 0-125.4 34.7-125.4 103.7v631.8c10.4 53 54.5 92.7 108.3 97.7h518.4c61.1 0.1 111.4-48.2 113.9-109.2V233.7c-0.9-15.5-13.2-27.8-28.7-28.7v-1zM743.4 755.3H280.6c-15.8 0-28.7 12.9-28.7 28.7 0 15.9 12.9 28.7 28.7 28.7h462.9c15.8 0 28.7-12.9 28.7-28.7-0.1-15.8-12.9-28.7-28.8-28.7z m0 0" p-id="5277"></path></svg>