<svg t="1552307895813" class="icon" style="" viewBox="0 0 1024 1024" version="1.1" xmlns="http://www.w3.org/2000/svg" p-id="28896" xmlns:xlink="http://www.w3.org/1999/xlink" width="300" height="300"><defs><style type="text/css"></style></defs><path d="M947.2 76.8H76.8C38.4 76.8 6.4 102.4 6.4 147.2v742.4c0 38.4 25.6 70.4 70.4 70.4h870.4c38.4 0 70.4-25.6 70.4-70.4V140.8c-6.4-32-32-64-70.4-64z m25.6 262.4v524.8c0 19.2-12.8 32-32 32H230.4v-76.8h-44.8V896H89.6c-19.2 0-38.4-6.4-38.4-25.6V147.2c0-19.2 12.8-32 32-32h102.4v70.4h44.8v-64h704c19.2 0 32 12.8 32 32v185.6h6.4z" fill="" p-id="28897"></path><path d="M806.4 467.2h-140.8l108.8-185.6c0-6.4 6.4-6.4 6.4-12.8 0-12.8-12.8-25.6-25.6-25.6s-19.2 6.4-19.2 12.8L627.2 448s-57.6-102.4-108.8-192c-6.4-12.8-12.8-12.8-19.2-12.8-12.8 0-25.6 12.8-25.6 25.6 0 6.4 0 6.4 6.4 12.8l108.8 185.6H435.2c-12.8 0-25.6 12.8-25.6 25.6s12.8 19.2 25.6 19.2h160v64H454.4c-12.8 0-25.6 6.4-25.6 25.6 0 12.8 12.8 25.6 25.6 25.6h140.8v134.4c0 12.8 12.8 25.6 25.6 25.6s25.6-12.8 25.6-25.6V620.8h140.8c12.8 0 25.6-12.8 25.6-25.6s-12.8-25.6-25.6-25.6h-140.8V512h160c12.8 0 25.6-6.4 25.6-25.6 0-12.8-6.4-19.2-25.6-19.2zM185.6 256h44.8v70.4h-44.8V256zM185.6 396.8h44.8v70.4h-44.8V396.8zM185.6 537.6h44.8v70.4h-44.8V537.6zM185.6 678.4h44.8v70.4h-44.8v-70.4z" fill="" p-id="28898"></path></svg>