<svg t="1552307519428" class="icon" style="" viewBox="0 0 1024 1024" version="1.1" xmlns="http://www.w3.org/2000/svg" p-id="24884" xmlns:xlink="http://www.w3.org/1999/xlink" width="300" height="300"><defs><style type="text/css"></style></defs><path d="M641.969231 295.384615c27.569231 27.569231 43.323077 63.015385 43.323077 110.276923 0 35.446154-11.815385 66.953846-31.507693 90.584616-7.876923 7.876923-27.569231 31.507692-63.015384 59.076923-15.753846 15.753846-27.569231 27.569231-35.446154 43.323077-11.815385 15.753846-15.753846 35.446154-15.753846 59.076923v19.692308h-63.015385v-19.692308c0-27.569231 3.938462-47.261538 15.753846-66.953846 11.815385-23.630769 35.446154-55.138462 78.769231-90.584616l27.569231-27.56923c15.753846-19.692308 23.630769-39.384615 23.630769-63.015385 0-31.507692-7.876923-55.138462-27.569231-74.830769-19.692308-19.692308-43.323077-27.569231-78.76923-27.569231-39.384615 0-66.953846 11.815385-86.646154 39.384615-15.753846 23.630769-27.569231 51.2-27.569231 90.584616H338.707692c0-55.138462 15.753846-98.461538 47.261539-133.907693 31.507692-35.446154 74.830769-51.2 133.907692-51.2 51.2 0 90.584615 15.753846 122.092308 43.323077zM543.507692 748.307692c7.876923 7.876923 11.815385 19.692308 11.815385 31.507693 0 15.753846-3.938462 23.630769-15.753846 35.446153-7.876923 7.876923-19.692308 11.815385-35.446154 11.815385-11.815385 0-23.630769-3.938462-35.446154-11.815385-7.876923-7.876923-11.815385-19.692308-11.815385-35.446153 0-11.815385 3.938462-23.630769 11.815385-31.507693 7.876923-7.876923 19.692308-11.815385 35.446154-11.815384 15.753846-3.938462 27.569231 0 39.384615 11.815384z" p-id="24885"></path><path d="M512 39.384615c259.938462 0 472.615385 212.676923 472.615385 472.615385s-212.676923 472.615385-472.615385 472.615385S39.384615 771.938462 39.384615 512 252.061538 39.384615 512 39.384615m0-39.384615C228.430769 0 0 228.430769 0 512s228.430769 512 512 512 512-228.430769 512-512S795.569231 0 512 0z" p-id="24886"></path></svg>