<svg t="1552305975754" class="icon" style="" viewBox="0 0 1059 1024" version="1.1" xmlns="http://www.w3.org/2000/svg" p-id="9543" xmlns:xlink="http://www.w3.org/1999/xlink" width="310.25390625" height="300"><defs><style type="text/css"></style></defs><path d="M1017.635449 956.920361h-3.907552V918.496101A195.37759 195.37759 0 0 0 912.782809 748.517598 130.251727 130.251727 0 1 0 691.354874 657.992648a130.251727 130.251727 0 0 0 37.773001 90.52495A195.37759 195.37759 0 0 0 624.926493 918.496101v37.121742h-9.768879V918.496101a195.37759 195.37759 0 0 0-104.201382-171.28102A130.251727 130.251727 0 0 0 548.729233 657.992648a130.251727 130.251727 0 1 0-218.171642 90.52495A195.37759 195.37759 0 0 0 226.356209 918.496101v28.65538a224.03297 224.03297 0 0 1 54.705726-438.29706h736.573514a31.260414 31.260414 0 0 0 31.260415-32.562932 31.911673 31.911673 0 0 0-31.260415-32.562932h-3.907552V397.489194A195.37759 195.37759 0 0 0 912.782809 224.905657 125.041658 125.041658 0 0 0 947.299517 136.985741a130.251727 130.251727 0 1 0-218.171642 90.52495A195.37759 195.37759 0 0 0 624.926493 397.489194v47.541881h-9.768879V397.489194a195.37759 195.37759 0 0 0-104.201382-171.28102A130.251727 130.251727 0 1 0 292.78459 136.985741a125.041658 125.041658 0 0 0 37.773001 90.52495A195.37759 195.37759 0 0 0 226.356209 397.489194v52.100691a290.461351 290.461351 0 0 0 0 566.595011v7.815104h795.186792a31.911673 31.911673 0 0 0 31.260414-32.562932 31.260414 31.260414 0 0 0-35.167966-34.516707zM819.652825 71.859878a65.125863 65.125863 0 1 1-65.125864 65.125863 65.125863 65.125863 0 0 1 65.125864-65.125863z m-130.251727 325.629316a130.251727 130.251727 0 0 1 260.503453 0v39.075518h-260.503453zM420.431282 71.859878a65.125863 65.125863 0 1 1-65.125863 65.125863 65.125863 65.125863 0 0 1 65.125863-65.125863z m-130.251727 325.629316a130.251727 130.251727 0 0 1 260.503454 0v39.075518h-260.503454z m130.251727 195.377591a65.125863 65.125863 0 1 1-65.125863 65.125863 65.125863 65.125863 0 0 1 65.125863-65.125863z m0 195.37759a130.251727 130.251727 0 0 1 130.251727 130.251726v37.121742h-260.503454V918.496101a130.251727 130.251727 0 0 1 130.251727-130.251726z m399.221543-195.37759a65.125863 65.125863 0 1 1-65.125864 65.125863 65.125863 65.125863 0 0 1 65.125864-65.125863z m-130.251727 325.629316a130.251727 130.251727 0 1 1 260.503453 0v37.121742h-260.503453z" p-id="9544"></path></svg>