<svg t="1552307837186" class="icon" style="" viewBox="0 0 1024 1024" version="1.1" xmlns="http://www.w3.org/2000/svg" p-id="28507" xmlns:xlink="http://www.w3.org/1999/xlink" width="300" height="300"><defs><style type="text/css"></style></defs><path d="M907.295576 1023.702463H192.283184A107.636274 107.636274 0 0 1 76.958605 908.377883V723.858556a38.441526 38.441526 0 0 1 38.441526-38.441526 38.441526 38.441526 0 0 1 38.441526 38.441526v184.519327c0 23.064916 0 38.441526 38.441527 38.441527h715.012392a38.441526 38.441526 0 0 1 0 76.883053z" p-id="28508"></path><path d="M822.724218 893.001273H115.400131a38.441526 38.441526 0 0 1-38.441526-38.441527V116.482438A115.324579 115.324579 0 0 1 192.283184 1.157859h630.441034a107.636274 107.636274 0 0 1 123.012884 115.324579v661.194255a123.012885 123.012885 0 0 1-123.012884 115.32458z m-668.882561-76.883053h668.882561c15.376611 0 46.129832-7.688305 46.129832-38.441527V116.482438c0-30.753221-15.376611-38.441526-46.129832-38.441526H192.283184a38.441526 38.441526 0 0 0-38.441527 38.441526z" p-id="28509"></path><path d="M392.179121 708.481946h-30.753221a69.194748 69.194748 0 0 1-30.753221-61.506443L353.737595 539.339229l-76.883053-76.883053a61.506442 61.506442 0 0 1-15.37661-61.506442 61.506442 61.506442 0 0 1 53.818137-38.441527l99.947968-15.37661 46.129832-99.947969a61.506442 61.506442 0 0 1 107.636274 0L615.139975 339.443292l99.947969 15.37661a61.506442 61.506442 0 0 1 38.441526 38.441527 61.506442 61.506442 0 0 1-7.688305 61.506442l-76.883053 76.883053 15.376611 107.636274a61.506442 61.506442 0 0 1-23.064916 61.506442 61.506442 61.506442 0 0 1-61.506443 0l-92.259663-46.129831-84.571358 46.129831z m123.012885-61.506443zM384.490816 631.598893z m123.012885-53.818137h23.064916l76.883053 38.441526-15.376611-76.883053a61.506442 61.506442 0 0 1 15.376611-53.818137l61.506442-61.506442H584.386754c-7.688305-7.688305-30.753221-15.376611-38.441527-38.441527l-30.753221-76.883053-38.441526 69.194748c-15.376611 23.064916-30.753221 38.441526-46.129832 38.441527h-76.883053l53.818137 61.506442a53.818137 53.818137 0 0 1 23.064916 46.129832L415.244037 616.222282l69.194748-30.753221z m-146.077801-30.753222zM615.139975 347.131597z m-192.207632-7.688305z m76.883053-61.506443z m30.753221 0z" p-id="28510"></path></svg>