<svg t="1552304365001" class="icon" style="" viewBox="0 0 1024 1024" version="1.1" xmlns="http://www.w3.org/2000/svg" p-id="3995" xmlns:xlink="http://www.w3.org/1999/xlink" width="200" height="200"><defs><style type="text/css"></style></defs><path d="M807.6 560H754v-56c0-19.9-16.1-36-36-36H540v-20h59.1c28.1 0 50.9-22.4 50.9-50.6V200.9c0-28.1-22.8-50.9-50.9-50.9H402.6c-28.1 0-50.6 22.8-50.6 50.9v196.5c0 28.1 22.5 50.6 50.6 50.6H468v20H285c-19.9 0-36 16.1-36 36v56h-54.9c-28.1 0-51.1 22.8-51.1 50.9v196.5c0 28.1 23 50.6 51.1 50.6h196.5c28.1 0 51.4-22.4 51.4-50.6V610.9c0-28.1-23.3-50.9-51.4-50.9H321v-20h361v20h-70.9c-28.1 0-51.1 22.8-51.1 50.9v196.5c0 28.1 23 50.6 51.1 50.6h196.5c28.1 0 51.4-22.4 51.4-50.6V610.9c0-28.1-23.3-50.9-51.4-50.9zM424 222h154v154H424V222z m-54 564H215V632h155v154z m417 0H632V632h155v154z" p-id="3996"></path></svg>