<svg t="1552639079211" class="icon" style="" viewBox="0 0 1024 1024" version="1.1" xmlns="http://www.w3.org/2000/svg" p-id="3823" xmlns:xlink="http://www.w3.org/1999/xlink" width="300" height="300"><defs><style type="text/css"></style></defs><path d="M892.281 515.369c-15.337 0-27.764 12.431-27.764 27.762v262.48c0 33.68-27.404 61.084-61.085 61.084H217.56c-33.685 0-61.079-27.404-61.079-61.084V254.446c0-33.684 27.394-61.079 61.079-61.079h190.966c15.328 0 27.764-12.431 27.764-27.768 0-15.332-12.436-27.764-27.764-27.764H217.56c-64.298 0-116.611 52.313-116.611 116.611v551.165c0 64.3 52.313 116.606 116.611 116.606h585.873c64.3 0 116.607-52.307 116.607-116.606v-262.48c0-15.331-12.427-27.762-27.759-27.762M309.648 678.057c-2.761 15.087 7.229 29.557 22.307 32.316 1.692 0.311 3.375 0.453 5.038 0.453 13.14 0 24.818-9.369 27.273-22.765 0.211-1.163 22.243-117.934 98.908-234.022 44.613-67.554 98.678-121.274 160.69-159.671 59.188-36.646 126.082-59.463 199.549-68.164l-90.391 93.256c-10.674 11.013-10.399 28.587 0.614 39.261a27.655 27.655 0 0 0 19.315 7.828c7.255 0 14.499-2.825 19.94-8.441l139.937-144.37c0.101-0.105 0.195-0.22 0.301-0.33 0.139-0.149 0.279-0.304 0.418-0.454 0.155-0.169 0.306-0.345 0.454-0.52 0.026-0.03 0.046-0.055 0.066-0.075l0.414-0.504c0.149-0.179 0.299-0.364 0.435-0.554 0.139-0.175 0.265-0.35 0.398-0.521 0.15-0.214 0.305-0.429 0.454-0.644 0.096-0.144 0.195-0.289 0.29-0.433 0.095-0.146 0.2-0.286 0.285-0.435 0.034-0.045 0.064-0.105 0.104-0.161 0.021-0.035 0.045-0.08 0.07-0.12 0.089-0.139 0.17-0.285 0.259-0.424 0.141-0.249 0.284-0.494 0.42-0.739 0.079-0.141 0.155-0.285 0.229-0.424 0.024-0.049 0.06-0.105 0.085-0.154 0.1-0.205 0.209-0.405 0.31-0.604 0.079-0.17 0.16-0.34 0.234-0.509 0.114-0.235 0.22-0.466 0.319-0.699 0.086-0.196 0.16-0.385 0.239-0.579 0.091-0.22 0.175-0.435 0.261-0.654 0.079-0.215 0.159-0.435 0.234-0.649 0.064-0.205 0.135-0.403 0.2-0.6a14.2 14.2 0 0 0 0.219-0.723l0.16-0.565c0.07-0.249 0.135-0.504 0.194-0.758 0.035-0.154 0.074-0.305 0.11-0.464 0.01-0.04 0.015-0.085 0.025-0.129 0.055-0.241 0.099-0.485 0.148-0.725 0.025-0.139 0.051-0.279 0.081-0.419 0.015-0.11 0.029-0.22 0.055-0.328a27.225 27.225 0 0 1 0.135-0.951l0.064-0.534c0.01-0.104 0.016-0.214 0.025-0.314 0.01-0.094 0.02-0.185 0.024-0.278l0.021-0.16 0.044-0.724c0-0.04 0-0.074 0.005-0.116l0.017-0.443s0-0.011 0.005-0.016c0.005-0.295 0.01-0.589 0.01-0.883v-0.031c0-0.459-0.01-0.909-0.031-1.362-0.005-0.042-0.005-0.076-0.01-0.11-0.005-0.091-0.005-0.17-0.01-0.25v-0.024a31.791 31.791 0 0 0-0.109-1.228v-0.005c-0.005-0.05-0.005-0.095-0.015-0.145a26.69 26.69 0 0 0-0.115-0.859c-0.015-0.12-0.03-0.245-0.055-0.369-0.005-0.055-0.015-0.1-0.025-0.155-0.034-0.24-0.084-0.479-0.125-0.719-0.029-0.16-0.064-0.32-0.095-0.47 0-0.029-0.015-0.05-0.02-0.07l-0.029-0.149c-0.101-0.47-0.215-0.939-0.346-1.402l-0.094-0.335a19.41 19.41 0 0 0-0.315-1.013l-0.06-0.19c-0.08-0.239-0.155-0.479-0.245-0.713-0.01-0.031-0.02-0.056-0.029-0.081-0.04-0.11-0.086-0.209-0.125-0.309a1.029 1.029 0 0 0-0.04-0.105c-0.095-0.25-0.195-0.495-0.294-0.744-0.056-0.134-0.126-0.274-0.186-0.415-0.005-0.005-0.01-0.01-0.01-0.02-0.115-0.259-0.225-0.509-0.345-0.754 0 0-0.005-0.013-0.005-0.02a26.869 26.869 0 0 0-0.844-1.592v-0.005a32.879 32.879 0 0 0-0.664-1.118c-0.025-0.041-0.05-0.075-0.069-0.115-0.136-0.205-0.27-0.414-0.405-0.624l-0.024-0.035c-0.07-0.1-0.14-0.205-0.215-0.31-0.074-0.105-0.16-0.215-0.239-0.33l-0.176-0.24c-0.055-0.08-0.108-0.16-0.169-0.234a3.831 3.831 0 0 0-0.18-0.239c-0.14-0.19-0.295-0.375-0.444-0.56-0.08-0.099-0.155-0.194-0.234-0.289-0.041-0.055-0.091-0.11-0.13-0.17-0.19-0.215-0.385-0.435-0.58-0.649-0.05-0.06-0.1-0.12-0.148-0.169-0.27-0.293-0.545-0.584-0.824-0.864-0.021-0.024-0.05-0.05-0.075-0.075a25.81 25.81 0 0 0-0.908-0.874 0.09 0.09 0 0 1-0.041-0.035c-0.313-0.285-0.633-0.56-0.963-0.829-0.015-0.014-0.04-0.035-0.055-0.05a29.75 29.75 0 0 0-0.954-0.744c-0.04-0.034-0.085-0.068-0.129-0.104a27.02 27.02 0 0 0-0.895-0.628 10.828 10.828 0 0 0-0.708-0.474c-0.115-0.08-0.24-0.15-0.36-0.225-0.14-0.085-0.27-0.17-0.409-0.25-0.119-0.076-0.239-0.15-0.359-0.22-0.135-0.071-0.265-0.14-0.399-0.215-0.155-0.089-0.32-0.175-0.479-0.259a24.438 24.438 0 0 0-0.7-0.359c-0.179-0.091-0.358-0.17-0.544-0.256-0.22-0.105-0.439-0.205-0.664-0.299a9.802 9.802 0 0 0-0.614-0.26c-0.204-0.08-0.409-0.17-0.614-0.24-0.229-0.089-0.459-0.169-0.688-0.249-0.19-0.07-0.374-0.134-0.563-0.195-0.121-0.039-0.24-0.081-0.36-0.115l-203.802-67.564c-14.559-4.828-30.27 3.065-35.093 17.614-4.827 14.559 3.065 30.266 17.614 35.093l81.968 27.175c-60.251 13.02-116.157 35.392-167.151 66.965-68.897 42.667-128.713 101.967-177.791 176.277-82.843 125.445-106.233 249.407-107.187 254.62" fill="" p-id="3824"></path></svg>