<svg t="1552638910412" class="icon" style="" viewBox="0 0 1024 1024" version="1.1" xmlns="http://www.w3.org/2000/svg" p-id="2957" xmlns:xlink="http://www.w3.org/1999/xlink" width="300" height="300"><defs><style type="text/css"></style></defs><path d="M85.088189 298.840718l0.979995 0.496997 387.195015 187.089041a86.720555 86.720555 0 0 0 74.449618 0l390.148-188.683033 0.979995-0.496997c17.741909-9.243953 28.331855-25.43587 28.331854-43.323778s-10.589946-34.079825-28.331854-43.324778L551.236799 8.752205c-22.231886-11.65794-53.342727-11.65794-75.604613-0.03L85.088189 212.105163c-17.741909 9.316952-28.404854 25.508869-28.404855 43.396777s10.662945 34.123825 28.404855 43.338778zM509.142015 73.722872a18.004908 18.004908 0 0 1 8.599956 0L862.168205 253.146952 515.519982 420.768093l-0.701996 0.349998a17.946908 17.946908 0 0 1-8.614956 0l-0.701997-0.349998-343.724237-166.085149z" p-id="2958"></path><path d="M64.128296 558.682386l407.949909 197.881985a89.222543 89.222543 0 0 0 76.759606 0l411.007893-199.520977a36.566813 36.566813 0 1 0-31.929836-65.819662L516.482977 690.949708l-0.759996 0.379998a20.476895 20.476895 0 0 1-10.619946 0l-0.773996-0.379998L96.058133 492.935723a36.566813 36.566813 0 1 0-31.914837 65.819662z" p-id="2959"></path><path d="M927.870868 750.011405L516.483977 949.708381l-0.774996 0.379998a20.476895 20.476895 0 0 1-10.603946 0l-0.306998-0.159999L96.058133 751.634396a36.566813 36.566813 0 1 0-31.914837 65.819663l407.934909 197.868985a89.222543 89.222543 0 0 0 76.759606 0l411.007893-199.506977a36.566813 36.566813 0 0 0-31.929836-65.819662z" p-id="2960"></path></svg>