<svg t="1552638729827" class="icon" style="" viewBox="0 0 1024 1024" version="1.1" xmlns="http://www.w3.org/2000/svg" p-id="2088" xmlns:xlink="http://www.w3.org/1999/xlink" width="300" height="300"><defs><style type="text/css"></style></defs><path d="M490.085206 299.816832c0-14.478051-14.210175-26.124271-31.88998-26.124271H153.607654c-17.565001 0-31.88998 11.646221-31.88998 26.124271s14.312223 26.124271 31.88998 26.124271h304.613084c17.654293 0 31.88998-11.697245 31.88998-26.124271zM307.993423 489.319847c0-14.427027-14.210175-26.124271-31.88998-26.124272h-122.457521c-17.603269 0-31.88998 11.697245-31.88998 26.124272s14.261199 26.124271 31.88998 26.124271h122.457521c17.603269 0 31.88998-11.646221 31.88998-26.124271z m-154.347501 163.429767c-17.603269 0-31.88998 11.71-31.88998 26.124271s14.261199 26.124271 31.88998 26.124271H240.69281c17.616025 0 31.88998-11.71 31.889979-26.124271s-14.261199-26.124271-31.889979-26.124271z m0 0" p-id="2089"></path><path d="M415.832578 950.066271H138.032588c-32.081319 0-58.154567-30.193433-58.154567-67.351636V141.336389c0-37.196472 26.124271-67.402661 58.154567-67.40266H722.741741c32.030295 0 58.103543 30.193433 58.103543 67.40266v86.000897a31.88998 31.88998 0 0 0 63.779959 0V141.336389c0-72.313718-54.710449-131.144352-121.845234-131.144352H138.032588C70.782999 10.204793 16.187354 69.035428 16.187354 141.336389v741.416513c0 72.262694 54.595645 131.093328 121.845234 131.093329h277.748966a31.88998 31.88998 0 0 0 0-63.77996z m0 0" p-id="2090"></path><path d="M959.531217 661.538492a7.130599 7.130599 0 0 1-2.091982-11.697244 25.422692 25.422692 0 0 1 9.095022-6.1739c28.535154-12.755992 43.893368-37.515372 40.908466-66.331158-2.984902-29.568389-11.812048-54.225721-27.068215-75.260352-20.065175-27.693258-50.781603-36.673477-81.91898-23.67512a33.407943 33.407943 0 0 1-12.960087 2.666002c-2.296079 0-5.855-2.296079-6.008072-4.388061a22.578106 22.578106 0 0 1 1.568987-9.822114c3.035926-8.674074 7.577059-21.685186 4.388061-37.783248-5.102397-24.708356-22.527082-38.867507-30.614381-45.500623-22.960785-18.917136-49.83766-24.555284-68.027704-27.170262a61.024665 61.024665 0 0 0-59.047486 23.254173 101.524939 101.524939 0 0 0-13.483084 21.264238c-0.892919 2.091983-6.1739 8.521003-13.215207 4.286013-2.870098-1.671035-4.541133-5.740196-7.309183-11.64622-13.062136-27.170263-36.992376-40.755394-65.935722-37.413324-31.88998 3.711994-57.210623 13.432059-77.326823 29.632169-22.463302 18.07524-30.984304 42.630525-24.453236 69.277791 0.676068 2.921122 1.199063 5.5361 2.091983 8.623051a30.971548 30.971548 0 0 1 1.097015 5.855c0.102048 1.824107 0.522996 3.711994-0.522996 5.587125-1.045991 2.091983-3.240022 4.490109-8.355174 4.286013a93.259056 93.259056 0 0 1-18.292093-4.018138c-14.324979-4.030893-41.903433-6.531068-66.458717 21.417311-17.195077 19.695251-24.236384 42.171309-28.73925 61.496636-7.998007 33.535503 5.166177 74.928696 44.645972 88.6669 0.522996 0.3189 5.957048 0.3189 6.747919 6.531067 0.369924 3.188998-4.234989 7.105087-12.232996 10.447158-28.318302 11.914096-43.255568 37.247496-41.010513 69.494643a137.54786 137.54786 0 0 0 28.177985 74.392944c17.246101 22.667397 43.204544 32.234391 71.433555 25.754348a165.687578 165.687578 0 0 1 20.409587-3.763018 36.7245 36.7245 0 0 1-3.188998 11.340077c-3.240022 8.253127-7.207135 20.894315-4.706961 36.265285 2.717026 16.978225 11.289053 31.239424 26.379391 43.625492 19.22328 15.677114 43.000448 26.073247 72.709153 31.609348 35.002442 6.531068 67.402661-10.447157 79.941801-42.528477 0.676068-1.671035 3.240022-11.863072 10.08999-11.391101 5.5361 0.420948 6.059096 4.809009 9.566993 12.53914 12.169216 27.068215 35.321341 42.796353 61.649709 42.796353a88.922019 88.922019 0 0 0 8.929194-0.522996 158.263591 158.263591 0 0 0 68.703772-26.124271c29.045393-19.810055 39.607355-55.43754 25.601276-86.740745-0.625044-1.364891-2.296079-7.526035-0.82914-10.038965 2.551198-4.541133 12.169216-0.102048 22.88425 2.551198 27.425382 6.798944 53.868553-1.568987 73.984752-24.236384 19.491156-22.106134 25.805371-47.911505 28.943346-65.476506a71.076386 71.076386 0 0 0-12.335044-56.215656c-10.08999-13.636155-23.407245-21.009119-33.854403-25.920176z m9.720066 79.418805c-3.137974 17.552245-7.832179 29.211221-15.30719 37.61742-5.803976 6.633116-8.355175 6.008072-11.710001 5.102397-16.455229-4.183965-34.645274-7.462255-54.850764-3.91609-30.308237 5.434053-55.590612 33.70133-57.580548 64.111615-1.148039 16.876177 1.045991 31.456276 7.054064 44.645972 1.989935 4.439085-2.347102 7.832179-3.66097 8.674074a105.326225 105.326225 0 0 1-46.036374 17.348149 14.809707 14.809707 0 0 1-3.91609-5.752952c-9.720066-21.787234-24.453236-37.247496-43.995416-46.074643-26.124271-11.658977-53.345558-8.316907-76.905874 9.299118a88.832727 88.832727 0 0 0-29.938313 38.51034c-0.625044 1.620011-1.568987 4.694205-9.873138 3.444117-20.996363-3.967113-36.418357-10.294085-48.383477-20.116199l-5.013105-4.439085 2.091983-3.916089c4.439085-11.340077 8.929194-24.75938 8.100055-41.112562a68.448652 68.448652 0 0 0-59.149534-64.88973 108.056007 108.056007 0 0 0-13.062136-0.82914c-12.845284 0-24.555284 2.398126-35.576461 4.860033-4.337037 1.097015-4.911057 0.625044-7.258159-2.347102A81.638348 81.638348 0 0 1 447.339877 736.773332c-1.109771-16.149086-0.204096-3.507898 0.267876-4.541133a6.824456 6.824456 0 0 1 2.091983-2.245055c20.409587-12.755992 39.186407-25.027256 49.110568-45.194479 12.641188-25.767103 9.566994-53.81753-8.469978-75.183816-8.725098-10.204793-20.894315-22.833225-37.61742-28.688225-7.832179-2.717026-5.178933-15.524042-5.178933-15.677114 4.388061-18.598236 9.146046-29.466341 21.583138-38.714435 10.766057 3.035926 23.981265 6.900992 39.658379 5.752952 40.653346-2.551198 69.749763-30.461308 72.313718-68.397628l1.199063-11.544173-0.778116-13.904031a96.448054 96.448054 0 0 1-0.102047-24.555284c11.71-9.401166 27.272311-15.05207 50.156559-16.034282 4.553889 9.669042 11.238029 22.259206 22.960786 33.446211 17.654293 16.927201 42.005481 23.930241 66.726593 19.644227a81.842444 81.842444 0 0 0 59.366386-44.276048 55.016593 55.016593 0 0 1 6.582092-10.345109c19.133988 2.717026 31.25218 7.105087 40.538542 14.784195 2.194031 1.824107 8.929194 7.270915 9.299118 7.475011l-2.091983 6.786188a93.386616 93.386616 0 0 0-5.434052 40.181374c3.393094 37.094424 35.270317 67.351637 72.415765 68.652748a118.107728 118.107728 0 0 0 44.939359-8.253127l3.495142-1.722059 3.240022 4.183965c9.299118 12.845284 14.784195 28.73925 13.215208 50.47546a98.437989 98.437989 0 0 0-32.795655 22.948029 78.104938 78.104938 0 0 0 23.777168 124.396433 33.905426 33.905426 0 0 1 10.549206 6.696895c0.727092 1.045991 1.824107 2.551198 0.892919 8.049031z m0 0" p-id="2091"></path><path d="M704.717525 504.690817c-84.125766 1.097015-149.742588 66.828641-149.538493 149.538492a150.112512 150.112512 0 0 0 149.436445 149.64054h1.568987c83.60277-0.841895 150.941651-68.180776 150.265583-150.265584a150.035976 150.035976 0 0 0-151.796302-148.913448z m0.790871 254.91574c-28.586178 2.461906-53.511386-10.294085-73.142857-29.785241a103.132194 103.132194 0 0 1-31.086352-73.716876c-0.153072-57.006527 45.564403-102.303054 104.076137-103.030146h1.364891a103.808261 103.808261 0 0 1 103.553142 103.030146c0.522996 56.483532-46.508346 102.928098-104.752205 103.451093z m0 0" p-id="2092"></path></svg>