<svg t="1552306143842" class="icon" style="" viewBox="0 0 1024 1024" version="1.1" xmlns="http://www.w3.org/2000/svg" p-id="10737" xmlns:xlink="http://www.w3.org/1999/xlink" width="300" height="300"><defs><style type="text/css"></style></defs><path d="M174.08 309.76c-76.8 0-138.88-62.08-138.88-138.88S97.28 31.36 174.08 31.36s138.88 62.08 138.88 138.88S250.24 309.76 174.08 309.76zM174.08 69.76c-55.68 0-100.48 45.44-100.48 100.48s45.44 100.48 100.48 100.48 100.48-45.44 100.48-100.48S229.12 69.76 174.08 69.76z" p-id="10738"></path><path d="M216.96 992.64l-60.16 0c-32.64 0-60.16-24.32-64-56.96 0-0.64 0-1.28 0-1.92l0-288c0-12.8-10.24-23.04-23.04-23.04L62.08 622.72c-0.64 0-0.64 0-1.28 0-33.28-1.92-59.52-28.16-60.8-60.8 0-1.28 0-1.92 0-3.2L0 373.12c0-33.92 27.52-61.44 61.44-61.44L473.6 311.68c33.92 0 61.44 27.52 61.44 61.44l0 7.04c0 33.28-26.88 60.8-60.8 61.44l-174.72 15.36c-10.88 2.56-19.84 11.52-21.76 22.4l0 451.84C278.4 965.12 250.88 992.64 216.96 992.64zM130.56 931.84c1.92 12.8 12.8 22.4 25.6 22.4l60.16 0c12.8 0 23.04-10.24 23.04-23.04L239.36 478.08c0-0.64 0-1.28 0-2.56 3.2-28.8 24.96-51.84 53.76-56.96 0.64 0 1.28 0 1.92 0L472.32 403.2c0.64 0 1.28 0 1.92 0 12.8 0 23.04-10.24 23.04-23.04l0-7.04c0-12.8-10.24-23.04-23.04-23.04L61.44 350.08c-12.8 0-23.04 10.24-23.04 23.04l0 181.76c0 0.64 0 1.92 0 2.56 0 13.44 10.88 24.96 24.32 26.24l6.4 0c33.92 0 61.44 27.52 61.44 61.44L130.56 931.84z" p-id="10739"></path><path d="M962.56 745.6 332.16 745.6c-10.88 0-19.2-8.32-19.2-19.2s8.32-19.2 19.2-19.2l630.4 0c12.8 0 23.04-10.24 23.04-23.04L985.6 220.8c0-12.8-10.24-23.04-23.04-23.04L379.52 197.76c-10.88 0-19.2-8.32-19.2-19.2s8.32-19.2 19.2-19.2l583.04 0c33.92 0 61.44 27.52 61.44 61.44l0 463.36C1024 718.08 996.48 745.6 962.56 745.6z" p-id="10740"></path><path d="M634.88 611.84c-1.28 0-1.92 0-3.2 0-7.04-1.28-12.8-6.4-15.36-13.44l-58.88-190.72c-3.2-10.24 2.56-21.12 12.8-24.32 10.24-3.2 21.12 2.56 24.32 12.8l47.36 153.6 95.36-133.12c3.84-5.12 8.96-7.68 15.36-8.32 6.4 0 11.52 2.56 15.36 7.68l47.36 61.44 78.08-161.28c3.2-6.4 9.6-10.88 17.28-10.88l46.08 0c10.88 0 19.2 8.32 19.2 19.2s-8.32 19.2-19.2 19.2l-33.92 0-86.4 178.56c-3.2 5.76-8.96 10.24-15.36 10.88-6.4 0.64-12.8-1.92-17.28-7.04l-50.56-65.28-103.04 143.36C647.04 608.64 640.64 611.84 634.88 611.84z" p-id="10741"></path></svg>